<svg width="35" height="34" viewBox="0 0 35 34" fill="none" xmlns="http://www.w3.org/2000/svg">
<path fill-rule="evenodd" clip-rule="evenodd" d="M2.19922 4.67502C2.19922 3.97086 2.77006 3.40002 3.47422 3.40002H21.3242C22.0284 3.40002 22.5992 3.97086 22.5992 4.67502C22.5992 5.37919 22.0284 5.95002 21.3242 5.95002H20.8992V29.325C20.8992 30.0292 20.3284 30.6 19.6242 30.6H17.0742C16.3701 30.6 15.7992 30.0292 15.7992 29.325V25.075C15.7992 24.3709 15.2284 23.8 14.5242 23.8H10.2742C9.57006 23.8 8.99922 24.3709 8.99922 25.075V29.325C8.99922 30.0292 8.42838 30.6 7.72422 30.6H3.47422C2.77006 30.6 2.19922 30.0292 2.19922 29.325C2.19922 28.6209 2.77006 28.05 3.47422 28.05H3.89922V5.95002H3.47422C2.77006 5.95002 2.19922 5.37919 2.19922 4.67502ZM7.29922 9.35002C7.29922 8.88058 7.67978 8.50002 8.14922 8.50002H9.84922C10.3187 8.50002 10.6992 8.88058 10.6992 9.35002V11.05C10.6992 11.5195 10.3187 11.9 9.84922 11.9H8.14922C7.67978 11.9 7.29922 11.5195 7.29922 11.05V9.35002ZM8.14922 15.3C7.67978 15.3 7.29922 15.6806 7.29922 16.15V17.85C7.29922 18.3195 7.67978 18.7 8.14922 18.7H9.84922C10.3187 18.7 10.6992 18.3195 10.6992 17.85V16.15C10.6992 15.6806 10.3187 15.3 9.84922 15.3H8.14922ZM14.0992 9.35002C14.0992 8.88058 14.4798 8.50002 14.9492 8.50002H16.6492C17.1187 8.50002 17.4992 8.88058 17.4992 9.35002V11.05C17.4992 11.5195 17.1187 11.9 16.6492 11.9H14.9492C14.4798 11.9 14.0992 11.5195 14.0992 11.05V9.35002ZM14.9492 15.3C14.4798 15.3 14.0992 15.6806 14.0992 16.15V17.85C14.0992 18.3195 14.4798 18.7 14.9492 18.7H16.6492C17.1187 18.7 17.4992 18.3195 17.4992 17.85V16.15C17.4992 15.6806 17.1187 15.3 16.6492 15.3H14.9492Z" fill="#A685FA"/>
<path fill-rule="evenodd" clip-rule="evenodd" d="M24.7242 10.2C24.0201 10.2 23.4492 10.7709 23.4492 11.475V28.9C23.4492 29.8389 24.2103 30.6 25.1492 30.6H31.5242C32.2284 30.6 32.7992 30.0292 32.7992 29.325C32.7992 28.6209 32.2284 28.05 31.5242 28.05H31.0992V12.75H31.5242C32.2284 12.75 32.7992 12.1792 32.7992 11.475C32.7992 10.7709 32.2284 10.2 31.5242 10.2H24.7242ZM25.5742 16.15C25.5742 15.6806 25.9548 15.3 26.4242 15.3H28.1242C28.5937 15.3 28.9742 15.6806 28.9742 16.15V17.85C28.9742 18.3195 28.5937 18.7 28.1242 18.7H26.4242C25.9548 18.7 25.5742 18.3195 25.5742 17.85V16.15ZM26.4242 22.1C25.9548 22.1 25.5742 22.4806 25.5742 22.95V24.65C25.5742 25.1195 25.9548 25.5 26.4242 25.5H28.1242C28.5937 25.5 28.9742 25.1195 28.9742 24.65V22.95C28.9742 22.4806 28.5937 22.1 28.1242 22.1H26.4242Z" fill="#A685FA"/>
</svg>
