<svg width="25" height="24" viewBox="0 0 25 24" fill="none" xmlns="http://www.w3.org/2000/svg">
<g id="Icon">
<g id="Iconly/Bulk/Send">
<g id="Send">
<path id="Fill-1" d="M21.9274 2.5783C21.4274 2.0673 20.6874 1.8783 19.9974 2.0783L3.90742 6.7273C3.17942 6.9293 2.66342 7.5063 2.52442 8.2383C2.38242 8.9843 2.87842 9.9323 3.52642 10.3283L8.55742 13.4003C9.07342 13.7163 9.73942 13.6373 10.1664 13.2093L15.9274 7.4483C16.2174 7.1473 16.6974 7.1473 16.9874 7.4483C17.2774 7.7373 17.2774 8.2083 16.9874 8.5083L11.2164 14.2693C10.7884 14.6973 10.7084 15.3613 11.0234 15.8783L14.0974 20.9283C14.4574 21.5273 15.0774 21.8683 15.7574 21.8683C15.8374 21.8683 15.9274 21.8683 16.0074 21.8573C16.7874 21.7583 17.4074 21.2273 17.6374 20.4773L22.4074 4.5083C22.6174 3.8283 22.4274 3.0883 21.9274 2.5783Z" fill="white"/>
<path id="Combined-Shape" opacity="0.4" d="M9.95139 19.1423C10.2434 19.4353 10.2434 19.9103 9.95139 20.2033L8.58539 21.5683C8.43939 21.7153 8.24739 21.7883 8.05539 21.7883C7.86339 21.7883 7.67139 21.7153 7.52539 21.5683C7.23239 21.2753 7.23239 20.8013 7.52539 20.5083L8.89039 19.1423C9.18339 18.8503 9.65839 18.8503 9.95139 19.1423ZM9.16769 15.3543C9.45969 15.6473 9.45969 16.1223 9.16769 16.4153L7.80169 17.7803C7.65569 17.9273 7.46369 18.0003 7.27169 18.0003C7.07969 18.0003 6.88769 17.9273 6.74169 17.7803C6.44869 17.4873 6.44869 17.0133 6.74169 16.7203L8.10669 15.3543C8.39969 15.0623 8.87469 15.0623 9.16769 15.3543ZM5.40649 14.1619C5.69849 14.4549 5.69849 14.9299 5.40649 15.2229L4.04049 16.5879C3.89449 16.7349 3.70249 16.8079 3.51049 16.8079C3.31849 16.8079 3.12649 16.7349 2.98049 16.5879C2.68749 16.2949 2.68749 15.8209 2.98049 15.5279L4.34549 14.1619C4.63849 13.8699 5.11349 13.8699 5.40649 14.1619Z" fill="white"/>
</g>
</g>
</g>
</svg>
