<svg width="25" height="24" viewBox="0 0 25 24" fill="none" xmlns="http://www.w3.org/2000/svg">
<g id="Icon" clip-path="url(#clip0_95_6865)">
<path id="Vector" d="M7.80016 21.75C16.8545 21.75 21.8083 14.2467 21.8083 7.74186C21.8083 7.53092 21.8036 7.3153 21.7942 7.10436C22.7579 6.40746 23.5895 5.54425 24.25 4.5553C23.3525 4.9546 22.3996 5.21538 21.4239 5.32874C22.4513 4.71291 23.2205 3.74547 23.5891 2.60577C22.6226 3.17856 21.5656 3.58261 20.4634 3.80061C19.7208 3.01156 18.739 2.48912 17.6697 2.31405C16.6004 2.13899 15.5032 2.32105 14.5477 2.8321C13.5923 3.34314 12.8318 4.15471 12.3838 5.14131C11.9359 6.12792 11.8254 7.23462 12.0695 8.2903C10.1125 8.19209 8.19794 7.6837 6.44998 6.7981C4.70203 5.91249 3.15969 4.66944 1.92297 3.14952C1.2944 4.23324 1.10206 5.51565 1.38503 6.73609C1.668 7.95654 2.40506 9.02345 3.44641 9.71999C2.66463 9.69517 1.89998 9.48468 1.21563 9.10592V9.16686C1.21492 10.3041 1.6081 11.4066 2.32831 12.2868C3.04852 13.167 4.05132 13.7706 5.16625 13.995C4.44206 14.1931 3.68198 14.222 2.94484 14.0794C3.25945 15.0574 3.87157 15.9129 4.69577 16.5263C5.51997 17.1398 6.51512 17.4806 7.54234 17.5012C5.79842 18.8711 3.64417 19.6141 1.42656 19.6106C1.03329 19.61 0.640399 19.5859 0.25 19.5384C2.50286 20.9837 5.12353 21.7514 7.80016 21.75Z" fill="white"/>
</g>
<defs>
<clipPath id="clip0_95_6865">
<rect width="24" height="24" fill="white" transform="translate(0.25)"/>
</clipPath>
</defs>
</svg>
