<svg width="35" height="34" viewBox="0 0 35 34" fill="none" xmlns="http://www.w3.org/2000/svg">
<g id="Icon">
<g id="Union">
<path d="M5.39219 12.1058C7.38387 14.0975 10.613 14.0975 12.6047 12.1058C12.8494 11.8611 13.0641 11.5977 13.2487 11.3201C14.1624 12.6941 15.7247 13.5996 17.4984 13.5996C19.2724 13.5996 20.8349 12.6939 21.7486 11.3196C21.9332 11.5973 22.148 11.861 22.393 12.1059C24.3846 14.0976 27.6138 14.0976 29.6054 12.1059C31.5971 10.1142 31.5971 6.88507 29.6054 4.89339L29.1079 4.39586C28.4703 3.75824 27.6055 3.40002 26.7038 3.40002H8.29383C7.39209 3.40002 6.52729 3.75824 5.88967 4.39586L5.39219 4.89333C3.40052 6.88501 3.40052 10.1142 5.39219 12.1058Z" fill="#A685FA"/>
<path d="M5.59844 15.3548C8.02603 16.5592 10.9601 16.3947 13.2494 14.8615C14.4639 15.6741 15.9255 16.1496 17.4984 16.1496C19.0716 16.1496 20.5332 15.6741 21.7478 14.8613C24.0369 16.3946 26.9708 16.5593 29.3984 15.3553V28.05H29.8234C30.5276 28.05 31.0984 28.6209 31.0984 29.325C31.0984 30.0292 30.5276 30.6 29.8234 30.6H22.1734C21.4693 30.6 20.8984 30.0292 20.8984 29.325V23.375C20.8984 22.6709 20.3276 22.1 19.6234 22.1H15.3734C14.6693 22.1 14.0984 22.6709 14.0984 23.375V29.325C14.0984 30.0292 13.5276 30.6 12.8234 30.6H5.17344C4.46927 30.6 3.89844 30.0292 3.89844 29.325C3.89844 28.6209 4.46927 28.05 5.17344 28.05H5.59844V15.3548Z" fill="#A685FA"/>
</g>
</g>
</svg>
